<?xml version="1.0" encoding="UTF-8"?>
<!DOCTYPE svg PUBLIC "-//W3C//DTD SVG 1.1//EN" "http://www.w3.org/Graphics/SVG/1.1/DTD/svg11.dtd">
<svg version="1.1" xmlns="http://www.w3.org/2000/svg" xmlns:xlink="http://www.w3.org/1999/xlink" x="0" y="0" width="800" height="800" viewBox="0, 0, 800, 800">
  <g id="Layer_1">
    <path d="M539.48,504.476 L730.546,426.695 L731.466,416.779 C731.718,414.008 734.864,411.349 738.484,410.841 C742.102,410.33 744.829,412.166 744.573,414.941 L743.761,423.706 C747.024,423.935 749.891,424.985 751.922,426.753 L764.715,421.204 C768.706,419.471 772.973,420.302 774.248,423.054 C775.524,425.809 773.321,429.448 769.33,431.177 L756.991,436.533 L757.918,438.807 L773.701,431.96 C778.122,430.043 782.849,430.961 784.262,434.013 C785.674,437.064 783.234,441.091 778.813,443.008 L762.807,449.954 C762.703,449.998 762.601,450.022 762.501,450.063 L763.62,452.816 L776.496,447.228 C780.197,445.624 784.151,446.391 785.331,448.944 C786.514,451.496 784.473,454.869 780.776,456.472 L767.462,462.249 L768.44,464.658 L775.741,461.488 C778.687,460.211 781.841,460.823 782.783,462.856 C783.724,464.89 782.1,467.575 779.15,468.856 L768.913,473.298 C767.289,477.555 763.139,481.626 757.466,483.936 L563.299,562.98 C554.378,566.613 545.095,564.517 542.562,558.298 L527.913,522.309 C525.38,516.09 530.559,508.105 539.48,504.476" fill="#914109"/>
    <path d="M318.056,493.977 L120.373,435.007 L118.501,425.226 C117.981,422.492 114.593,420.149 110.942,419.993 C107.291,419.834 104.754,421.924 105.276,424.662 L106.931,433.307 C103.705,433.851 100.954,435.173 99.102,437.128 L85.833,432.84 C81.694,431.501 77.527,432.74 76.523,435.602 C75.52,438.467 78.063,441.876 82.203,443.212 L95.001,447.352 L94.298,449.705 L77.928,444.413 C73.343,442.932 68.726,444.303 67.615,447.476 C66.504,450.65 69.321,454.422 73.907,455.904 L90.509,461.271 C90.616,461.306 90.72,461.32 90.824,461.351 L89.976,464.199 L76.62,459.88 C72.782,458.641 68.92,459.787 67.992,462.441 C67.061,465.096 69.418,468.255 73.253,469.494 L87.062,473.959 L86.321,476.451 L78.749,474.001 C75.693,473.014 72.612,473.928 71.872,476.042 C71.131,478.157 73.007,480.673 76.066,481.663 L86.684,485.096 C88.713,489.177 93.236,492.828 99.106,494.579 L299.997,554.508 C309.227,557.263 318.264,554.28 320.184,547.846 L331.29,510.61 C333.211,504.176 327.286,496.728 318.056,493.977" fill="#914109"/>
    <path d="M522.498,682.971 L522.498,768 L458.168,768 C458.168,768 465.17,750.994 478.175,750.994 L478.175,682.971 z" fill="#FF5910"/>
    <path d="M422.699,682.971 L422.699,768 L355.291,768 C355.291,768 362.294,750.994 375.298,750.994 L375.298,682.971 z" fill="#FF5910"/>
    <path d="M269.052,699.722 C248.618,697.298 228.28,693.566 208.142,689.268 C187.897,684.951 169.637,675.552 154.893,661.012 C146.813,653.044 140.411,642.968 139.915,630.817 C139.519,621.141 139.095,611.349 140.084,601.754 C142.447,578.911 152.458,559.755 171.322,546.308 C180.344,539.875 190.471,534.861 200.493,530.025 C204.876,527.905 205.468,525.458 204.406,521.591 C203.137,516.967 201.763,512.373 200.436,507.764 C193.664,484.217 199.051,462.29 210.255,441.591 C220.785,422.142 238.264,410.376 257.875,401.261 C259.722,400.407 261.942,396.352 261.334,394.867 C257.294,384.99 258.917,375.526 261.226,365.595 C268.605,333.838 291.394,318.41 320.289,310.446 C328.122,308.287 330.127,305.998 329.723,298.465 C329.272,290.104 328.984,281.278 331.104,273.314 C337.645,248.732 353.031,229.171 369.998,210.988 C392.567,186.795 420.238,169.439 449.51,154.688 C463.861,147.455 479.059,142.376 495.699,143.646 C509.227,144.677 515.671,154.777 510.065,166.892 C508.684,169.878 507.207,172.844 505.456,175.618 C500.481,183.502 500.166,191.335 505.171,199.303 C508.684,204.894 512.058,210.573 515.656,216.109 C526.279,232.465 532.412,250.071 529.23,269.743 C528.387,274.964 528.96,277.407 533.885,279.904 C553.457,289.815 572.529,300.034 585.418,319.349 C601.57,343.553 606.926,368.696 596.253,396.102 C594.041,401.773 596.23,403.254 600.189,404.343 C615.294,408.483 627.237,417.429 637.309,428.921 C649.698,443.049 656.424,459.57 659.163,478.357 C661.325,493.189 660.106,507.136 655.8,521.214 C655.377,522.607 657.155,525.639 658.697,526.508 C668.208,531.864 678.623,535.854 687.465,542.102 C707.218,556.065 720.469,574.998 723.008,599.503 C724.412,613.05 724.178,626.982 722.812,640.548 C721.15,657.03 713.089,671.135 700.585,681.997 C685.791,694.847 667.35,699.86 648.548,702.346 C624.917,705.474 601.801,700.438 578.774,695.417 C563.145,692.008 547.424,688.834 531.592,686.614 C514.128,684.167 497.207,688.995 480.097,691.904 C461.01,695.155 441.688,697.448 422.374,698.864 C392.002,701.096 361.549,702.25 329.576,703.939 C310.339,702.673 289.582,702.157 269.052,699.722" fill="#B15515"/>
    <path d="M558.537,293.656 C569.142,300.303 578.338,309.046 585.418,319.349 C601.57,343.553 606.926,368.696 596.253,396.102 C594.04,401.773 596.23,403.254 600.189,404.343 C615.294,408.483 627.237,417.429 637.309,428.921 C649.698,443.049 656.424,459.57 659.163,478.357 C661.325,493.189 660.106,507.136 655.8,521.214 C655.377,522.607 657.155,525.639 658.697,526.508 C668.208,531.864 678.623,535.854 687.465,542.102 C707.218,556.065 720.469,574.998 723.008,599.503 C724.412,613.05 724.178,626.982 722.812,640.548 C721.15,657.03 713.089,671.135 700.585,681.997 C685.791,694.847 667.35,699.86 648.548,702.346 C624.917,705.474 601.801,700.438 578.774,695.417 C561.479,691.731 570.966,693.66 550.29,689.743 C553.393,688.036 552.062,688.882 554.345,687.306 C554.783,687.271 554.509,687.316 555.144,687.063 C575.843,676.3 599.719,656.341 614.446,635.853 C633.3,609.626 636.837,584.166 620.311,563.134 C615.169,556.589 606.02,547.81 586.612,550.049 L572.429,552.288 C600.794,541.091 606.696,533.665 610.499,527.655 C633.639,491.078 614.231,456.468 596.316,438.078 C589.948,431.542 575.294,421.763 561.515,421.197 C535.909,421.794 533.896,422.167 535.171,421.723 C561.605,412.512 568.516,387.794 568.516,354.846 C568.516,312.128 556.968,304.467 558.394,294.58 L558.537,293.656 z" fill="#914109"/>
    <path d="M141.481,594.114 C152.165,641.119 230.295,682.971 386.557,620.964 C518.704,568.526 565.53,703.313 621.696,624.696 C622.497,623.574 722.862,599.528 723.008,600.928 C724.413,614.475 724.178,628.407 722.812,641.973 C721.15,658.456 713.089,672.561 700.585,683.422 C685.792,696.273 667.351,701.286 648.548,703.771 C624.913,706.899 601.801,701.863 578.774,696.842 C563.146,693.433 547.421,690.259 531.592,688.039 C514.129,685.592 497.207,690.421 480.098,693.333 C461.01,696.581 441.688,698.874 422.374,700.289 C391.998,702.521 361.549,703.675 329.577,705.364 C310.339,704.102 289.582,703.583 269.052,701.147 C248.618,698.724 228.28,694.992 208.143,690.694 C187.897,686.377 169.637,676.981 154.893,662.438 C146.814,654.47 140.412,644.393 139.911,632.243 C139.515,622.567 139.096,612.775 140.085,603.179 C140.404,600.086 140.877,597.069 141.481,594.114" fill="#914109"/>
    <path d="M446.12,450.824 C444.212,451.855 442.369,452.955 440.58,454.109 C435.798,450.897 431.696,446.522 428.768,441.105 C419.126,423.272 425.767,401.003 443.596,391.361 C461.426,381.719 483.699,388.352 493.34,406.185 C499.593,417.747 498.996,431.171 492.944,441.817 C478.274,439.643 461.61,442.448 446.12,450.824" fill="#FEFAFE"/>
    <path d="M492.403,464.26 C479.114,464.26 468.341,475.033 468.341,488.322 C468.341,501.607 479.114,512.384 492.403,512.384 C505.692,512.384 516.465,501.607 516.465,488.322 C516.465,475.033 505.692,464.26 492.403,464.26" fill="#F65C75"/>
    <path d="M288.491,467.874 C277.507,467.874 268.608,476.777 268.608,487.761 C268.608,498.742 277.507,507.645 288.491,507.645 C299.472,507.645 308.379,498.742 308.379,487.761 C308.379,476.777 299.472,467.874 288.491,467.874" fill="#F65C75"/>
    <path d="M391.238,520.521 C412.695,516.446 428.701,504.046 440.451,486.374 C442.759,482.896 444.926,474.556 440.247,471.196 C432.589,465.698 428.608,469.181 424.13,474.247 C421.36,477.38 418.247,481.073 415,484.255 C394.974,503.877 373.575,507.471 347.989,492.073 C342.945,489.041 336.441,482.721 332.562,488.092 C329.327,492.571 335.402,500.445 340.027,504.265 C355.047,516.681 371.262,524.465 391.238,520.521" fill="#000000"/>
    <path d="M463.16,404.125 C477.349,404.125 488.857,415.625 488.857,429.818 C488.864,433.786 487.91,437.667 486.174,441.225 C472.794,440.496 459.334,444.005 447.49,450.117 C441.038,445.234 437.732,437.79 437.47,429.818 C437.47,415.625 448.974,404.125 463.16,404.125 z" fill="#000000"/>
    <path d="M469.004,417.682 C465.683,414.44 469.406,412.872 470.782,412.611 C474.889,411.831 481.359,415.684 480.081,424.134 C478.569,434.132 475.303,429.37 474.714,427.181 C474.714,427.181 474.491,420.41 469.004,417.682" fill="#FFFFFF"/>
    <path d="M245.668,97.708 L302.984,315.733 L584.246,317.392 L642.72,99.747 L527.099,152.023 L445.291,26.026 L363.205,152.654 z" fill="#F5A02F"/>
    <path d="M445.289,26.025 L444.478,316.941 L302.983,315.733 L245.667,97.708 L331.396,201.628 z" fill="#FFE237"/>
    <path d="M479.885,228.173 C479.885,251.708 464.949,270.788 446.523,270.788 C428.098,270.788 413.162,251.708 413.162,228.173 C413.162,204.638 428.098,185.558 446.523,185.558 C464.949,185.558 479.885,204.638 479.885,228.173" fill="#F65C76"/>
    <path d="M352.572,234.344 C352.572,244.909 344.007,253.473 333.442,253.473 C322.877,253.473 314.316,244.909 314.316,234.344 C314.316,223.779 322.877,215.214 333.442,215.214 C344.007,215.214 352.572,223.779 352.572,234.344" fill="#F65C76"/>
    <path d="M565.53,237.229 C565.53,247.795 556.965,256.359 546.4,256.359 C535.835,256.359 527.27,247.795 527.27,237.229 C527.27,226.664 535.835,218.1 546.4,218.1 C556.965,218.1 565.53,226.664 565.53,237.229" fill="#F65C76"/>
    <path d="M269.819,451.683 C267.91,452.714 266.068,453.814 264.278,454.968 C259.496,451.756 255.395,447.381 252.467,441.964 C242.825,424.131 249.466,401.862 267.295,392.22 C285.124,382.578 307.397,389.211 317.039,407.044 C323.291,418.606 322.695,432.03 316.643,442.676 C301.972,440.502 285.309,443.307 269.819,451.683" fill="#FEFAFE"/>
    <path d="M286.858,404.984 C301.048,404.984 312.556,416.484 312.556,430.677 C312.563,434.645 311.608,438.526 309.872,442.083 C296.492,441.355 283.033,444.864 271.188,450.976 C264.737,446.093 261.43,438.649 261.169,430.677 C261.169,416.484 272.673,404.984 286.858,404.984 z" fill="#000000"/>
    <path d="M292.703,418.541 C289.381,415.299 293.105,413.731 294.48,413.47 C298.588,412.69 305.057,416.543 303.78,424.993 C302.268,434.991 299.001,430.229 298.412,428.04 C298.412,428.04 298.189,421.268 292.703,418.541" fill="#FFFFFF"/>
    <g>
      <path d="M25.481,354.316 L95.317,354.316 C101.745,354.316 106.957,359.528 106.957,365.956 L106.957,500.745 C106.957,507.173 101.745,512.384 95.317,512.384 L25.481,512.384 C19.053,512.384 13.841,507.173 13.841,500.745 L13.841,365.956 C13.841,359.528 19.053,354.316 25.481,354.316 z" fill="#C7C9CB"/>
      <path d="M23.662,376.868 L97.136,376.868 L97.136,481.622 L23.662,481.622 L23.662,376.868 z" fill="#000000"/>
      <path d="M31.846,383.415 L37.666,383.415 C39.273,383.415 40.576,384.718 40.576,386.325 L40.576,392.145 C40.576,393.752 39.273,395.054 37.666,395.054 L31.846,395.054 C30.239,395.054 28.936,393.752 28.936,392.145 L28.936,386.325 C28.936,384.718 30.239,383.415 31.846,383.415 z" fill="#C7C9CB"/>
      <path d="M48.941,383.415 L54.761,383.415 C56.368,383.415 57.671,384.718 57.671,386.325 L57.671,392.145 C57.671,393.752 56.368,395.054 54.761,395.054 L48.941,395.054 C47.334,395.054 46.032,393.752 46.032,392.145 L46.032,386.325 C46.032,384.718 47.334,383.415 48.941,383.415 z" fill="#0075CB"/>
      <path d="M66.037,383.415 L71.856,383.415 C73.464,383.415 74.766,384.718 74.766,386.325 L74.766,392.145 C74.766,393.752 73.464,395.054 71.856,395.054 L66.037,395.054 C64.43,395.054 63.127,393.752 63.127,392.145 L63.127,386.325 C63.127,384.718 64.43,383.415 66.037,383.415 z" fill="#DD2125"/>
      <path d="M83.132,383.415 L88.952,383.415 C90.559,383.415 91.862,384.718 91.862,386.325 L91.862,392.145 C91.862,393.752 90.559,395.054 88.952,395.054 L83.132,395.054 C81.525,395.054 80.222,393.752 80.222,392.145 L80.222,386.325 C80.222,384.718 81.525,383.415 83.132,383.415 z" fill="#2D7600"/>
      <path d="M31.846,400.873 L37.666,400.873 C39.273,400.873 40.576,402.176 40.576,403.783 L40.576,409.603 C40.576,411.21 39.273,412.512 37.666,412.512 L31.846,412.512 C30.239,412.512 28.936,411.21 28.936,409.603 L28.936,403.783 C28.936,402.176 30.239,400.873 31.846,400.873 z" fill="#369800"/>
      <path d="M48.941,400.873 L54.761,400.873 C56.368,400.873 57.671,402.176 57.671,403.783 L57.671,409.603 C57.671,411.21 56.368,412.512 54.761,412.512 L48.941,412.512 C47.334,412.512 46.032,411.21 46.032,409.603 L46.032,403.783 C46.032,402.176 47.334,400.873 48.941,400.873 z" fill="#F65C75"/>
      <path d="M66.037,400.873 L71.856,400.873 C73.464,400.873 74.766,402.176 74.766,403.783 L74.766,409.603 C74.766,411.21 73.464,412.512 71.856,412.512 L66.037,412.512 C64.43,412.512 63.127,411.21 63.127,409.603 L63.127,403.783 C63.127,402.176 64.43,400.873 66.037,400.873 z" fill="#FFE238"/>
      <path d="M83.132,400.873 L88.952,400.873 C90.559,400.873 91.862,402.176 91.862,403.783 L91.862,409.603 C91.862,411.21 90.559,412.512 88.952,412.512 L83.132,412.512 C81.525,412.512 80.222,411.21 80.222,409.603 L80.222,403.783 C80.222,402.176 81.525,400.873 83.132,400.873 z" fill="#003298"/>
      <path d="M31.846,417.875 L37.666,417.875 C39.273,417.875 40.576,419.178 40.576,420.785 L40.576,426.605 C40.576,428.212 39.273,429.515 37.666,429.515 L31.846,429.515 C30.239,429.515 28.936,428.212 28.936,426.605 L28.936,420.785 C28.936,419.178 30.239,417.875 31.846,417.875 z" fill="#FFFFFF"/>
      <path d="M48.941,417.875 L54.761,417.875 C56.368,417.875 57.671,419.178 57.671,420.785 L57.671,426.605 C57.671,428.212 56.368,429.515 54.761,429.515 L48.941,429.515 C47.334,429.515 46.032,428.212 46.032,426.605 L46.032,420.785 C46.032,419.178 47.334,417.875 48.941,417.875 z" fill="#FF5910"/>
      <path d="M66.037,417.875 L71.856,417.875 C73.464,417.875 74.766,419.178 74.766,420.785 L74.766,426.605 C74.766,428.212 73.464,429.515 71.856,429.515 L66.037,429.515 C64.43,429.515 63.127,428.212 63.127,426.605 L63.127,420.785 C63.127,419.178 64.43,417.875 66.037,417.875 z" fill="#C7C9CB"/>
      <path d="M31.846,464.04 L37.666,464.04 C39.273,464.04 40.576,465.343 40.576,466.95 L40.576,472.77 C40.576,474.377 39.273,475.679 37.666,475.679 L31.846,475.679 C30.239,475.679 28.936,474.377 28.936,472.77 L28.936,466.95 C28.936,465.343 30.239,464.04 31.846,464.04 z" fill="#369800"/>
      <path d="M48.941,464.04 L54.761,464.04 C56.368,464.04 57.671,465.343 57.671,466.95 L57.671,472.77 C57.671,474.377 56.368,475.679 54.761,475.679 L48.941,475.679 C47.334,475.679 46.032,474.377 46.032,472.77 L46.032,466.95 C46.032,465.343 47.334,464.04 48.941,464.04 z" fill="#0075CB"/>
      <path d="M66.037,464.04 L71.856,464.04 C73.464,464.04 74.766,465.343 74.766,466.95 L74.766,472.77 C74.766,474.377 73.464,475.679 71.856,475.679 L66.037,475.679 C64.43,475.679 63.127,474.377 63.127,472.77 L63.127,466.95 C63.127,465.343 64.43,464.04 66.037,464.04 z" fill="#003298"/>
      <path d="M83.132,464.04 L88.952,464.04 C90.559,464.04 91.862,465.343 91.862,466.95 L91.862,472.77 C91.862,474.377 90.559,475.679 88.952,475.679 L83.132,475.679 C81.525,475.679 80.222,474.377 80.222,472.77 L80.222,466.95 C80.222,465.343 81.525,464.04 83.132,464.04 z" fill="#6C2FB6"/>
      <g>
        <path d="M60.899,504.077 C56.48,504.077 52.897,500.494 52.897,496.074 C52.897,491.655 56.48,488.072 60.899,488.072 C65.318,488.072 68.901,491.655 68.901,496.074 C68.901,500.494 65.318,504.077 60.899,504.077 z" fill="#FFFFFF"/>
        <path d="M60.899,504.077 C56.48,504.077 52.897,500.494 52.897,496.074 C52.897,491.655 56.48,488.072 60.899,488.072 C65.318,488.072 68.901,491.655 68.901,496.074 C68.901,500.494 65.318,504.077 60.899,504.077 z" fill-opacity="0" stroke="#FFFFFF" stroke-width="1"/>
      </g>
    </g>
    <path d="M108.169,434.822 C103.75,434.822 100.167,431.501 100.167,427.403 C100.167,423.306 103.75,419.985 108.169,419.985 C112.588,419.985 116.171,423.306 116.171,427.403 C116.171,431.501 112.588,434.822 108.169,434.822 z" fill="#914109"/>
  </g>
</svg>
