<?xml version="1.0" encoding="UTF-8"?>
<!DOCTYPE svg PUBLIC "-//W3C//DTD SVG 1.1//EN" "http://www.w3.org/Graphics/SVG/1.1/DTD/svg11.dtd">
<svg version="1.1" xmlns="http://www.w3.org/2000/svg" xmlns:xlink="http://www.w3.org/1999/xlink" x="0" y="0" width="50" height="50" viewBox="0, 0, 200, 200">
  <g id="Layer_1">
    <path d="M185.753,46.81 C179.443,49.609 172.661,51.499 165.544,52.35 C172.808,47.996 178.388,41.1 181.015,32.883 C174.216,36.916 166.686,39.844 158.67,41.422 C152.252,34.583 143.108,30.311 132.987,30.311 C113.556,30.311 97.8,46.064 97.8,65.496 C97.8,68.254 98.112,70.94 98.712,73.515 C69.468,72.048 43.542,58.039 26.187,36.751 C23.158,41.947 21.423,47.991 21.423,54.44 C21.423,66.648 27.635,77.417 37.076,83.727 C31.308,83.544 25.883,81.961 21.139,79.326 C21.135,79.473 21.135,79.62 21.135,79.769 C21.135,96.816 33.264,111.037 49.361,114.271 C46.408,115.076 43.3,115.505 40.091,115.505 C37.823,115.505 35.619,115.284 33.471,114.874 C37.949,128.853 50.943,139.026 66.34,139.309 C54.298,148.747 39.127,154.372 22.641,154.372 C19.801,154.372 17,154.205 14.247,153.88 C29.819,163.864 48.314,169.689 68.185,169.689 C132.905,169.689 168.298,116.074 168.298,69.575 C168.298,68.05 168.264,66.533 168.196,65.023 C175.07,60.063 181.035,53.866 185.752,46.81 z" fill="#FFFFFF"/>
  </g>
</svg>
