<?xml version="1.0" encoding="UTF-8"?>
<!DOCTYPE svg PUBLIC "-//W3C//DTD SVG 1.1//EN" "http://www.w3.org/Graphics/SVG/1.1/DTD/svg11.dtd">
<svg version="1.1" xmlns="http://www.w3.org/2000/svg" xmlns:xlink="http://www.w3.org/1999/xlink" x="0" y="0" width="800" height="800" viewBox="0, 0, 800, 800">
  <g id="Layer_1">
    <path d="M364.291,733.535 L364.291,772.971 L392.906,772.971 C392.906,772.971 389.792,765.406 384.007,765.406 L384.007,733.535 z" fill="#FF5910"/>
    <path d="M427.746,615.701 L420.882,645.878 L449.746,654.001 C449.746,654.001 448.797,645.875 443.229,644.308 L448.546,619.301 z" fill="#FF5910"/>
    <path d="M546.31,27.029 C574.009,27.029 596.464,52.052 596.464,82.919 L596.464,201.988 C596.464,232.856 574.009,257.878 546.31,257.878 L232.268,257.878 C204.569,257.878 182.116,232.856 182.116,201.988 L182.116,82.919 C182.116,52.052 204.569,27.029 232.268,27.029" fill="#C4480E"/>
    <path d="M228.72,538.782 L596.464,538.782 L596.464,197.44 L181.653,178.069 L181.653,538.782 z" fill="#C4480E"/>
    <path d="M582.824,223.805 C582.904,222.046 582.957,220.283 582.957,218.511 C582.957,135.69 496.252,68.551 389.295,68.551 L389.282,68.551 L389.269,68.551 C282.312,68.551 195.607,135.69 195.607,218.511 C195.607,220.283 195.66,222.046 195.739,223.805 L195.633,223.716 C195.633,223.716 191.773,297.249 275.414,350.517 C275.414,350.517 359.72,405.52 359.72,428.679 L359.72,507.133 L367.413,507.133 L413.083,507.133 L420.775,507.133 L420.775,428.679 C420.775,405.52 503.149,350.517 503.149,350.517 C586.791,297.249 582.93,223.716 582.93,223.716 z" fill="#F5A02F"/>
    <path d="M221.493,59.411 L582.958,62.506 C567.924,94.198 581.085,196.187 581.085,196.187 C527.875,188.908 476.536,171.295 426.584,152.122 C382.486,135.196 339.266,116.122 296.462,96.182 C277.489,144.313 257.119,192.44 228.808,235.935 C217.633,253.102 203.394,273.397 183.458,281.023 L189.968,69.851 L266.761,82.014 C251.604,74.618 236.452,67.202 221.493,59.411 z" fill="#C4480E"/>
    <path d="M292.534,264.76 C279.536,262.727 270.043,254.398 271.333,246.156 C272.621,237.916 284.204,232.882 297.201,234.915 C310.199,236.948 319.692,245.276 318.404,253.516 C317.114,261.759 305.533,266.793 292.534,264.76 M531.939,256.975 C519.21,260.292 507.185,256.439 505.082,248.366 C502.977,240.294 511.591,231.06 524.322,227.744 C537.053,224.426 549.08,228.281 551.183,236.353 C553.286,244.424 544.67,253.657 531.939,256.975" fill="#E8315D"/>
    <path d="M128.645,372.827 L153.581,381.028 C153.742,381.08 153.904,381.122 154.071,381.15 L169.212,383.77 C168.477,382.48 167.393,381.321 166.266,380.344 C165.479,379.663 164.632,378.984 164.212,378.034 C163.792,377.082 163.981,375.764 164.909,375.294 C165.53,374.978 166.275,375.123 166.952,375.282 C169.801,375.952 172.647,376.794 175.164,378.286 C176.53,379.096 177.683,379.646 179.023,380.496 C179.79,380.984 180.471,381.516 181.15,382.048 C185.298,384.085 187.578,386.089 188.825,387.754 C189.651,388.479 190.213,389.535 190.235,390.753 L190.237,390.832 C190.341,391.511 190.256,391.915 190.256,391.915 L190.256,391.915 L190.454,403.052 C190.494,405.261 188.875,407.081 186.839,407.118 L181.131,408.738 C178.198,409.571 175.129,409.668 172.153,409.02 L165.195,407.504 C163.749,407.529 162.42,406.635 161.796,405.219 L157.864,396.284 C157.478,395.407 156.813,394.712 155.991,394.326 L126.132,380.352 C124.801,379.727 123.927,378.317 123.898,376.744 L123.897,376.722 C123.849,374.01 126.25,372.04 128.645,372.827" fill="#F5A02F"/>
    <path d="M364.27,561.327 L364.27,733.535 L383.986,733.535 L383.986,567.35 L364.27,567.35" fill="#F5A02F"/>
    <path d="M403.439,578.052 L430.287,593.312 C431.41,593.949 431.994,595.239 431.732,596.503 L427.707,615.979 C427.707,615.979 448.1,621.295 448.1,621.295 L455.446,586.507 C455.707,585.275 455.163,584.012 454.091,583.354 L423.519,564.564 C422.65,564.03 421.565,563.979 420.648,564.429 L403.599,572.787 C401.45,573.842 401.358,576.87 403.439,578.052" fill="#F5A02F"/>
    <path d="M651.747,373.962 L626.811,382.163 C626.65,382.215 626.486,382.257 626.321,382.285 L611.18,384.905 C611.915,383.615 612.997,382.456 614.126,381.479 C614.913,380.798 615.76,380.119 616.18,379.169 C616.6,378.217 616.411,376.899 615.483,376.429 C614.862,376.113 614.117,376.257 613.44,376.417 C610.591,377.087 607.744,377.929 605.227,379.421 C603.862,380.231 602.709,380.781 601.369,381.631 C600.602,382.12 599.921,382.651 599.242,383.183 C595.094,385.22 592.812,387.223 591.567,388.889 C590.741,389.614 590.178,390.67 590.157,391.888 L590.155,391.967 C590.05,392.646 590.136,393.05 590.136,393.05 L590.136,393.05 L589.938,404.187 C589.898,406.396 591.516,408.216 593.552,408.253 L599.261,409.874 C602.192,410.706 605.263,410.803 608.239,410.155 L615.197,408.639 C616.643,408.664 617.972,407.771 618.596,406.354 L622.528,397.42 C622.913,396.542 623.579,395.847 624.401,395.461 L654.259,381.486 C655.591,380.863 656.465,379.452 656.493,377.879 L656.493,377.857 C656.543,375.145 654.142,373.175 651.747,373.962" fill="#F5A02F"/>
    <g>
      <path d="M460.075,263.405 L366.8,263.405 C347.821,263.405 332.436,279.493 332.436,299.339 C332.436,319.185 347.821,335.274 366.8,335.274 L460.075,335.274 C479.053,335.274 494.439,319.185 494.439,299.339 C494.439,279.493 479.053,263.405 460.075,263.405" fill="#F65C75"/>
      <path d="M460.075,263.405 L366.8,263.405 C347.821,263.405 332.436,279.493 332.436,299.339 C332.436,319.186 347.821,335.274 366.8,335.274 L460.075,335.274 C479.053,335.274 494.439,319.186 494.439,299.339 C494.439,279.493 479.053,263.405 460.075,263.405 z" fill="#F65C75"/>
    </g>
    <g>
      <path d="M454.041,273.279 L372.833,273.279 C356.31,273.279 342.915,284.947 342.915,299.339 C342.915,313.732 356.31,325.4 372.833,325.4 L454.041,325.4 C470.565,325.4 483.959,313.732 483.959,299.339 C483.959,284.947 470.565,273.279 454.041,273.279" fill="#040706"/>
    </g>
    <path d="M591.426,402.514 L592.084,402.697 C596.345,404.479 603.789,406.876 611.044,405.75 C613.823,405.319 618.048,403.844 617.918,406.655 L613.672,507.464 C613.558,509.969 611.422,511.897 608.92,511.759 L429.604,509.293 L436.46,532.213 C443.216,554.797 426.677,577.626 403.558,577.626 L377.994,577.626 C355.613,577.626 339.19,556.139 344.618,533.959 L350.572,509.631 L169.981,512.114 C167.48,512.253 165.345,510.324 165.229,507.819 L160.983,407.01 C160.853,404.2 165.079,405.674 167.858,406.106 C175.114,407.232 182.556,404.834 186.817,403.053 L187.475,402.87 C189.217,402.835 190.278,403.774 190.546,405.464 L191.397,475.65 C191.476,478.03 193.391,479.937 195.772,480.006 L351.364,474.917 L351.364,474.917 L382.233,472.637 C385,472.238 383.546,472.396 386.596,472.194 L393.046,472.194 C396.886,472.354 394.934,472.157 398.9,472.819 L425.104,474.482 L425.104,474.482 L583.13,479.65 C585.51,479.582 587.426,477.674 587.505,475.294 L588.355,405.109 C588.678,403.015 589.55,402.704 591.426,402.514 z" fill="#E8315D"/>
  </g>
</svg>
